<?xml version="1.0" encoding="iso-8859-1"?>
<!-- Generator: Adobe Illustrator 19.0.0, SVG Export Plug-In . SVG Version: 6.00 Build 0)  -->
<svg version="1.1" id="Layer_1" xmlns="http://www.w3.org/2000/svg" xmlns:xlink="http://www.w3.org/1999/xlink" x="0px" y="0px"
	 viewBox="0 0 512 512" style="enable-background:new 0 0 512 512;" xml:space="preserve">
<circle style="fill:#FF314F;" cx="256" cy="256" r="256"/>
<path style="fill:#A30F44;" d="M100.952,310.2l198.482,198.115c94.961-16.231,172.068-84.754,200.637-174.889L356.711,191.35
	l-12.876,10.485l-75.676-75.714L100.952,310.2z"/>
<path style="fill:#FFFFFF;" d="M113.778,291.771c0-78.546,63.676-142.222,142.222-142.222s142.222,63.676,142.222,142.222H113.778z"
	/>
<g>
	<path style="fill:#D0D1D3;" d="M256,149.549v142.222h142.222C398.222,213.225,334.546,149.549,256,149.549z"/>
	<path style="fill:#D0D1D3;" d="M404.552,312.889H107.446c-5.072,0-9.183-4.112-9.183-9.183v-10.076
		c0-5.072,4.112-9.183,9.183-9.183h297.107c5.072,0,9.183,4.112,9.183,9.183v10.076
		C413.737,308.777,409.626,312.889,404.552,312.889z"/>
</g>
<path style="fill:#A6A8AA;" d="M404.552,284.444H256v28.444h148.552c5.072,0,9.183-4.112,9.183-9.183v-10.076
	C413.737,288.556,409.624,284.444,404.552,284.444z"/>
<circle style="fill:#D0D1D3;" cx="256" cy="138.343" r="17.239"/>
<path style="fill:#A6A8AA;" d="M273.239,138.343c0-9.521-7.718-17.239-17.239-17.239v34.478
	C265.521,155.582,273.239,147.865,273.239,138.343z"/>
<g>
</g>
<g>
</g>
<g>
</g>
<g>
</g>
<g>
</g>
<g>
</g>
<g>
</g>
<g>
</g>
<g>
</g>
<g>
</g>
<g>
</g>
<g>
</g>
<g>
</g>
<g>
</g>
<g>
</g>
</svg>
